<svg width="20" height="21" viewBox="0 0 20 21" fill="none" xmlns="http://www.w3.org/2000/svg">
<g clip-path="url(#clip0_335_1107)">
<path d="M19.9951 20.5035V20.5027H20.0001V13.1677C20.0001 9.57935 19.2276 6.81519 15.0326 6.81519C13.0159 6.81519 11.6626 7.92185 11.1101 8.97102H11.0517V7.15019H7.07422V20.5027H11.2159V13.891C11.2159 12.1502 11.5459 10.4669 13.7017 10.4669C15.8259 10.4669 15.8576 12.4535 15.8576 14.0027V20.5035H19.9951Z" fill="white"/>
<path d="M0.330078 7.15137H4.47675V20.5039H0.330078V7.15137Z" fill="white"/>
<path d="M2.40167 0.503662C1.07583 0.503662 0 1.5795 0 2.90533C0 4.23116 1.07583 5.3295 2.40167 5.3295C3.7275 5.3295 4.80333 4.23116 4.80333 2.90533C4.8025 1.5795 3.72667 0.503662 2.40167 0.503662V0.503662Z" fill="white"/>
</g>
<defs>
<clipPath id="clip0_335_1107">
<rect width="20" height="20" fill="white" transform="translate(0 0.503662)"/>
</clipPath>
</defs>
</svg>
