<svg width="21" height="21" viewBox="0 0 21 21" fill="none" xmlns="http://www.w3.org/2000/svg">
<g clip-path="url(#clip0_335_1111)">
<path d="M18.9186 6.43116C19.732 5.85366 20.4161 5.13283 20.9736 4.30283V4.302C20.2295 4.62783 19.4378 4.8445 18.6111 4.9495C19.4611 4.442 20.1103 3.6445 20.4153 2.68366C19.6228 3.15616 18.7478 3.4895 17.8153 3.67616C17.0628 2.8745 15.9903 2.37866 14.8203 2.37866C12.5503 2.37866 10.7228 4.22116 10.7228 6.4795C10.7228 6.8045 10.7503 7.117 10.8178 7.4145C7.40947 7.24783 4.3928 5.6145 2.36613 3.12533C2.0128 3.7395 1.80447 4.442 1.80447 5.19783C1.80447 6.61783 2.5353 7.87616 3.62613 8.60533C2.96697 8.59283 2.32113 8.40116 1.77363 8.10033V8.14533C1.77363 10.1378 3.19447 11.7928 5.05863 12.1745C4.72447 12.2662 4.36113 12.3095 3.98363 12.3095C3.72113 12.3095 3.45613 12.2945 3.2078 12.2395C3.73863 13.8628 5.24697 15.057 7.03863 15.0962C5.64363 16.187 3.87197 16.8445 1.95447 16.8445C1.61863 16.8445 1.29613 16.8295 0.973633 16.7887C2.7903 17.9595 4.94197 18.6287 7.26363 18.6287C14.4995 18.6287 19.2153 12.592 18.9186 6.43116Z" fill="white"/>
</g>
<defs>
<clipPath id="clip0_335_1111">
<rect width="20" height="20" fill="white" transform="translate(0.973633 0.503662)"/>
</clipPath>
</defs>
</svg>
