<svg width="24" height="25" viewBox="0 0 24 25" fill="none" xmlns="http://www.w3.org/2000/svg">
<path d="M11.9998 15.7035C13.7671 15.7035 15.1998 14.2708 15.1998 12.5035C15.1998 10.7362 13.7671 9.30347 11.9998 9.30347C10.2325 9.30347 8.7998 10.7362 8.7998 12.5035C8.7998 14.2708 10.2325 15.7035 11.9998 15.7035Z" fill="white"/>
<path d="M15.9991 2.90356H7.9991C4.9119 2.90356 2.3999 5.41636 2.3999 8.50436V16.5044C2.3999 19.5916 4.9127 22.1036 8.0007 22.1036H16.0007C19.0879 22.1036 21.5999 19.5908 21.5999 16.5028V8.50276C21.5999 5.41556 19.0871 2.90356 15.9991 2.90356ZM11.9999 17.3036C9.3527 17.3036 7.1999 15.1508 7.1999 12.5036C7.1999 9.85636 9.3527 7.70356 11.9999 7.70356C14.6471 7.70356 16.7999 9.85636 16.7999 12.5036C16.7999 15.1508 14.6471 17.3036 11.9999 17.3036ZM17.5999 7.70356C17.1583 7.70356 16.7999 7.34516 16.7999 6.90356C16.7999 6.46196 17.1583 6.10356 17.5999 6.10356C18.0415 6.10356 18.3999 6.46196 18.3999 6.90356C18.3999 7.34516 18.0415 7.70356 17.5999 7.70356Z" fill="white"/>
</svg>
