<svg width="18" height="18" viewBox="0 0 18 18" fill="none" xmlns="http://www.w3.org/2000/svg">
<path d="M15.6761 3.83519L14.4476 2.60838C14.3207 2.48153 14.154 2.41797 13.9875 2.41797C13.821 2.41797 13.6545 2.48125 13.5276 2.60809L12.5449 3.58797L14.6934 5.73278L15.6761 4.75319C15.93 4.4995 15.93 4.08803 15.6761 3.83519Z" fill="white"/>
<path d="M6.16602 9.9553L8.31477 12.1004L14.2337 6.19246L12.0849 4.04736L6.16602 9.9553Z" fill="white"/>
<path d="M5.70188 10.4141L5.24316 13.0162L7.85063 12.5589L5.70188 10.4141Z" fill="white"/>
<path d="M11.642 14.1759H3.54032V6.07422H9.25785L10.6669 4.66797H3.04335C2.54301 4.66797 2.13379 5.07719 2.13379 5.57753V14.6729C2.13379 15.1732 2.54301 15.5824 3.04335 15.5824H12.1387C12.639 15.5824 13.0483 15.1732 13.0483 14.6729V8.17009L11.642 9.57381V14.1759Z" fill="white"/>
</svg>
