<svg width="62" height="47" viewBox="0 0 62 47" fill="none" xmlns="http://www.w3.org/2000/svg">
<path d="M51.6667 0H10.3333C4.65 0 0 4.65 0 10.3333V36.1667C0 41.85 4.65 46.5 10.3333 46.5H51.6667C57.35 46.5 62 41.85 62 36.1667V10.3333C62 4.65 57.35 0 51.6667 0ZM55.8 14.9833L35.3917 28.675C34.1 29.45 32.55 29.9667 31 29.9667C29.45 29.9667 27.9 29.45 26.6083 28.675L6.2 14.9833C5.16667 14.2083 4.90833 12.6583 5.68333 11.3667C6.45833 10.3333 8.00833 10.075 9.3 10.85L29.7083 24.5417C30.4833 25.0583 31.775 25.0583 32.55 24.5417L52.9583 10.85C54.25 10.075 55.8 10.3333 56.575 11.625C57.0917 12.6583 56.8333 14.2083 55.8 14.9833Z" fill="#000080"/>
</svg>
