<svg width="64" height="64" viewBox="0 0 64 64" fill="none" xmlns="http://www.w3.org/2000/svg">
<path d="M17.6667 28.7867C21.5067 36.3333 27.68 42.5067 35.24 46.3467L41.1067 40.4667C41.84 39.7333 42.8933 39.52 43.8133 39.8133C46.8 40.8 50.0133 41.3333 53.3333 41.3333C54.8133 41.3333 56 42.52 56 44V53.3333C56 54.8133 54.8133 56 53.3333 56C28.2933 56 8 35.7067 8 10.6667C8 9.18667 9.2 8 10.6667 8H20C21.48 8 22.6667 9.18667 22.6667 10.6667C22.6667 13.9867 23.2 17.2 24.1867 20.1867C24.48 21.1067 24.2667 22.16 23.5333 22.8933L17.6667 28.7867Z" fill="#000080"/>
</svg>
