<svg width="24" height="24" viewBox="0 0 24 24" fill="none" xmlns="http://www.w3.org/2000/svg">
<path d="M12 13.9966C9.46561 13.9966 7.40161 11.9326 7.40161 9.39821C7.40161 6.86381 9.46561 4.7998 12 4.7998C14.5344 4.7998 16.5984 6.86381 16.5984 9.39821C16.5984 11.9326 14.5344 13.9966 12 13.9966ZM12 6.1102C10.1904 6.1102 8.71681 7.5838 8.71681 9.3934C8.71681 11.203 10.1904 12.6766 12 12.6766C13.8096 12.6766 15.2832 11.203 15.2832 9.3934C15.2832 7.5838 13.8096 6.1102 12 6.1102Z" fill="#000080"/>
<path d="M18.5711 19.2528H17.2559C17.2559 16.3536 14.8991 13.9968 11.9999 13.9968C9.10071 13.9968 6.74391 16.3536 6.74391 19.2528H5.42871C5.42871 15.6288 8.37591 12.6816 11.9999 12.6816C15.6239 12.6816 18.5711 15.6288 18.5711 19.2528Z" fill="#000080"/>
</svg>
